<?xml version="1.0" encoding="UTF-8"?>
<svg width="218px" height="40px" viewBox="0 0 218 40" version="1.1" xmlns="http://www.w3.org/2000/svg" xmlns:xlink="http://www.w3.org/1999/xlink">
    <!-- Generator: Sketch 52.6 (67491) - http://www.bohemiancoding.com/sketch -->
    <title>Aqua Logo Svg</title>
    <desc>Created with Sketch.</desc>
    <defs>
        <linearGradient x1="50%" y1="99.8793363%" x2="50%" y2="0.00753988883%" id="linearGradient-1">
            <stop stop-color="#2B3990" offset="12%"></stop>
            <stop stop-color="#2B5989" offset="37%"></stop>
            <stop stop-color="#2BAA76" offset="92%"></stop>
            <stop stop-color="#2BB673" offset="100%"></stop>
        </linearGradient>
    </defs>
    <g id="Page-1" stroke="none" stroke-width="1" fill="none" fill-rule="evenodd">
        <g id="Aqua-Logo-Svg">
            <path d="M84.6125234,19.5571963 C84.6230395,20.212678 84.5160866,20.8647458 84.296729,21.4825234 C84.1015761,22.0210338 83.7460424,22.4867829 83.2780374,22.8170093 C82.5649064,23.28909 81.7649915,23.6145964 80.9248598,23.7745794 C79.5602854,24.0472469 78.1700345,24.1702175 76.778785,24.1413084 C75.5216372,24.165794 74.2653353,24.0599642 73.03,23.825514 C72.3135224,23.6979736 71.6428037,23.3854397 71.0842991,22.9188785 C70.6399144,22.4957917 70.3404483,21.9432056 70.2285981,21.3399065 C70.0459842,20.4003957 69.9606428,19.4445717 69.9739252,18.4875701 L69.9739252,7.03747664 L65.1962617,7.03747664 L65.1962617,18.5894393 C65.1962617,19.6081308 65.1962617,20.5249533 65.3185047,21.3704673 C65.3941304,22.1922562 65.5650602,23.0024636 65.8278505,23.7847664 C66.0869582,24.5292634 66.4805899,25.2198453 66.9891589,25.8221495 C67.5582675,26.4481766 68.2523312,26.9479025 69.0265421,27.2890654 C69.9321073,27.6938962 70.8880906,27.9748662 71.8686916,28.1243925 C73.14585,28.3224018 74.4372024,28.4143978 75.7295327,28.3994393 C77.2540174,28.4214591 78.7766598,28.2848993 80.2728972,27.9919626 C81.3301883,27.7815642 82.3569,27.4393269 83.328972,26.973271 C83.8134605,26.7396223 84.2683029,26.4489335 84.6838318,26.1073832 L84.6838318,28.0225234 L89.4513084,28.0225234 L89.4513084,7.03747664 L84.6125234,7.03747664 L84.6125234,19.5571963 Z M15.6572897,0.558598131 L0,27.9919626 L5.5111215,27.9919626 L8.89317757,22.0529907 L28.2483178,22.0529907 L31.6201869,27.9919626 L36.7747664,27.9919626 L21.188785,0.558598131 L15.6572897,0.558598131 Z M11.2972897,17.8763551 L18.6013084,5.01028037 L25.8747664,17.8254206 L11.2972897,17.8763551 Z M56.924486,8.01542056 C56.5375076,7.7880206 56.1319797,7.59377616 55.712243,7.43476636 C54.8414793,7.11818228 53.9401988,6.89286216 53.0228972,6.76242991 C51.7080019,6.56627264 50.3792976,6.47769235 49.05,6.49757009 C47.1548214,6.4740321 45.2617046,6.63093908 43.3962617,6.96616822 C41.9432434,7.22951892 40.5721251,7.82960122 39.3928037,8.71831776 C38.3090974,9.61552212 37.5092901,10.8081551 37.0905607,12.1513084 C36.5934166,13.8333864 36.3631115,15.5830176 36.4080374,17.3364486 C36.3679942,19.1063574 36.5981487,20.8720202 37.0905607,22.5725234 C37.5019209,23.9394968 38.2975264,25.1594252 39.3826168,26.0870093 C40.5547773,27.0061244 41.9317768,27.6282206 43.3962617,27.9002804 C45.2579166,28.2667984 47.1528135,28.4375098 49.05,28.4096262 C50.3799105,28.4246524 51.708773,28.3292469 53.0228972,28.1243925 C53.947073,27.9855667 54.8526415,27.7429427 55.7224299,27.4011215 C56.1420136,27.2369033 56.5446005,27.032198 56.924486,26.7899065 L56.924486,34.5115888 L61.6919626,34.5115888 L61.6919626,7.03747664 L56.924486,7.03747664 L56.924486,8.01542056 Z M56.7411215,20.1480374 C56.6514349,20.7965952 56.4660535,21.428265 56.191028,22.0224299 C55.9972164,22.4519232 55.6996622,22.8264915 55.3251402,23.1124299 C54.9132588,23.4058409 54.4503589,23.6200185 53.9600935,23.7440187 C53.2941001,23.9213026 52.611122,24.0271642 51.9227103,24.0598131 C51.0975701,24.0598131 50.1501869,24.1413084 49.0805607,24.1413084 C47.8479439,24.1413084 46.7681308,24.1413084 45.8818692,24.0292523 C45.1491587,23.9735682 44.4248686,23.8369097 43.722243,23.6217757 C43.2471719,23.4841999 42.806373,23.2481816 42.4285047,22.9290654 C42.1047733,22.6279016 41.8569263,22.2543857 41.7052336,21.8390654 C41.4912527,21.2524281 41.3609393,20.6385831 41.3181308,20.0156075 C41.2468224,19.2414019 41.2060748,18.3347664 41.2060748,17.2957009 C41.2060748,16.2566355 41.2060748,15.35 41.3181308,14.5961682 C41.360476,13.9896741 41.4908773,13.3925733 41.7052336,12.8236449 C41.8490957,12.4298344 42.0910188,12.0792213 42.4081308,11.8049533 C42.7881891,11.5324135 43.216995,11.3353012 43.6713084,11.2242991 C44.3779644,11.0114249 45.1053809,10.8748208 45.8411215,10.8168224 C46.7375701,10.7557009 47.8173832,10.7251402 49.05,10.7251402 C50.1196262,10.7251402 51.0873832,10.7251402 51.9023364,10.7760748 C52.5875293,10.8088941 53.2689102,10.8974736 53.9397196,11.0409346 C54.4264303,11.1493341 54.8891113,11.3461462 55.3047664,11.6215888 C55.6656254,11.8869461 55.955935,12.2367167 56.1502804,12.6402804 C56.4212652,13.2066358 56.6033704,13.8113624 56.6901869,14.4331776 C56.8230973,15.3711429 56.884396,16.3178669 56.8735514,17.2651402 C56.9003497,18.2280549 56.8560863,19.1916348 56.7411215,20.1480374 Z M154.331776,4.18514019 C153.953218,3.45548388 153.433878,2.80803985 152.803738,2.28018692 C152.070989,1.71217397 151.247962,1.27138948 150.369065,0.976261682 C149.297978,0.617583148 148.191433,0.375099407 147.068505,0.252990654 C145.62799,0.0876936011 144.178816,0.00945178731 142.728879,0.0186915888 L135.149813,0.0186915888 C133.444264,-0.00402456233 131.739984,0.12209216 130.056355,0.395607477 C128.804069,0.58892067 127.592424,0.988212756 126.470561,1.57728972 C125.539721,2.07324156 124.748153,2.79475958 124.168318,3.67579439 C123.617126,4.55376384 123.227289,5.52318035 123.017196,6.53831776 C122.779539,7.70238668 122.646579,8.88539567 122.619907,10.0731776 C122.619907,11.3363551 122.619907,12.7421495 122.619907,14.2803738 C122.619907,15.8185981 122.619907,17.2142056 122.619907,18.4773832 C122.646579,19.6651651 122.779539,20.8481741 123.017196,22.012243 C123.227289,23.0273804 123.617126,23.9967969 124.168318,24.8747664 C124.748153,25.7558012 125.539721,26.4773192 126.470561,26.973271 C127.593079,27.5608021 128.804462,27.9600078 130.056355,28.1549533 C131.739984,28.4284686 133.444264,28.5545853 135.149813,28.5318692 L142.728879,28.5318692 C144.178823,28.5414069 145.628016,28.4631641 147.068505,28.2975701 C148.193108,28.1743093 149.300264,27.9248574 150.369065,27.5539252 C151.256807,27.2505864 152.081841,26.7880149 152.803738,26.1888785 C153.454269,25.6207935 153.984254,24.9280034 154.362336,24.1514953 C154.756796,23.344998 155.024792,22.4825995 155.156916,21.5945794 C155.307275,20.5829667 155.378799,19.5611996 155.370841,18.5385047 L155.370841,17.774486 L150.603364,17.774486 L150.603364,18.5385047 C150.607347,19.2972063 150.569939,20.0555604 150.491308,20.8101869 C150.436869,21.3224264 150.306402,21.8236943 150.104206,22.2974766 C149.946851,22.6521908 149.705626,22.963336 149.401308,23.2041121 C149.019713,23.4934088 148.582875,23.7014271 148.117757,23.8153271 C147.406658,23.9971741 146.680317,24.1131159 145.947944,24.1616822 C145.051495,24.2228037 143.981869,24.2533645 142.749252,24.2533645 L135.170187,24.2533645 C133.764393,24.2533645 132.562336,24.2533645 131.604766,24.1311215 C130.846221,24.0866869 130.098157,23.93227 129.384019,23.6727103 C128.931233,23.5047504 128.535536,23.2115108 128.243084,22.8271963 C127.931685,22.3295944 127.72059,21.7759038 127.621682,21.1972897 C127.460724,20.2683658 127.372171,19.3283417 127.356822,18.3857009 C127.356822,17.2243925 127.356822,15.838972 127.356822,14.2294393 C127.356822,12.6199065 127.356822,11.2242991 127.356822,10.0629907 C127.369334,9.12064232 127.454477,8.18066088 127.611495,7.25140187 C127.703857,6.67418878 127.915489,6.12255657 128.232897,5.63168224 C128.53264,5.26433267 128.927204,4.98602378 129.373832,4.82691589 C130.089316,4.57213691 130.836691,4.41786229 131.594579,4.36850467 C132.55215,4.28700935 133.754206,4.24626168 135.16,4.24626168 L142.739065,4.24626168 C144.072047,4.23356357 145.404824,4.2879626 146.732336,4.40925234 C147.552377,4.4635182 148.351288,4.69277084 149.075327,5.08158879 C149.598907,5.40331416 149.994876,5.8964749 150.195888,6.47719626 C150.496726,7.4283663 150.631129,8.42432595 150.593178,9.42121495 L150.593178,10.2056075 L155.360654,10.2056075 L155.360654,9.42121495 C155.367001,8.47296254 155.295452,7.52579078 155.146729,6.58925234 C155.008659,5.74863691 154.733337,4.93643672 154.331776,4.18514019 Z M184.047009,18.5894393 C184.052824,19.3854611 184.015417,20.1812116 183.934953,20.9731776 C183.888288,21.4748685 183.775245,21.9681472 183.598785,22.4400935 C183.506839,22.7172089 183.345525,22.9661934 183.130187,23.1633645 C182.915318,23.3477888 182.660859,23.4802466 182.386542,23.5504673 C181.991553,23.6612719 181.584389,23.7228598 181.174299,23.7338318 C180.644579,23.7338318 180.053738,23.7338318 179.391589,23.7338318 C178.566449,23.7338318 177.853364,23.7338318 177.282897,23.6727103 C176.919361,23.6624427 176.566166,23.5494206 176.264206,23.346729 C176.009591,23.1188347 175.83466,22.8153831 175.765047,22.4808411 C175.5943,21.7292792 175.519002,20.9591866 175.540935,20.188785 L175.540935,11.2242991 L187.765234,11.2242991 L187.765234,7.03747664 L175.540935,7.03747664 L175.540935,1.76065421 L170.783645,1.76065421 L170.783645,7.03747664 L166.780187,7.03747664 L166.780187,11.2242991 L170.783645,11.2242991 L170.783645,20.188785 C170.757383,21.3982005 170.901411,22.6052962 171.211495,23.7745794 C171.488048,24.7409508 172.031837,25.6096002 172.78028,26.2805607 C173.57431,26.9454005 174.524248,27.3975851 175.540935,27.5946729 C176.818163,27.85223 178.119374,27.9717639 179.42215,27.951215 C180.777167,27.9764685 182.129735,27.8258028 183.445981,27.5029907 C184.530226,27.2347728 185.520246,26.6745832 186.308505,25.883271 C187.077131,25.0332122 187.610823,23.9974271 187.856916,22.8781308 C188.159572,21.4554471 188.299691,20.0029953 188.274579,18.5486916 L188.274579,17.7846729 L184.057196,17.7846729 L184.047009,18.5894393 Z M211.541495,7.14953271 L203.83,23.3772897 L195.680467,7.0782243 L190.169346,7.0782243 L201.22215,28.0327103 C201.22215,28.0327103 201.904673,29.2551402 199.571869,29.8256075 C197.889352,30.1167542 196.185876,30.2700671 194.478411,30.2840187 L194.478411,34.5115888 L195.24243,34.5115888 C196.369106,34.520655 197.49525,34.4594145 198.614299,34.3282243 C199.470063,34.2297163 200.315462,34.0558641 201.140654,33.8086916 C201.808709,33.5947218 202.44836,33.3005508 203.045607,32.9326168 C203.562316,32.599789 204.034689,32.2027218 204.451402,31.7509346 C204.847092,31.3108282 205.189056,30.8252398 205.470093,30.3043925 C205.734953,29.8154206 206.01,29.2857009 206.264673,28.7559813 L217.083178,7.14953271 L211.541495,7.14953271 Z M159.211308,27.0751402 C160.80649,27.0298325 162.402444,27.1321372 163.978785,27.3807477 L163.978785,7.00691589 L159.211308,7.00691589 L159.211308,27.0751402 Z M112.96271,8.92205607 C111.929477,7.96168427 110.654945,7.2997726 109.275047,7.00691589 C107.564722,6.64081381 105.818383,6.46993913 104.069533,6.49757009 C102.322598,6.47843298 100.576441,6.58054742 98.8436449,6.80317757 C97.6007593,6.94459058 96.3894456,7.28871381 95.2578505,7.82186916 C94.3483708,8.26302944 93.5975877,8.97467218 93.1084112,9.85925234 C92.6658118,10.7797029 92.4492839,11.7924951 92.4768224,12.8134579 L92.4768224,13.5774766 L97.2442991,13.5774766 L97.2442991,12.8134579 C97.2255235,12.4391331 97.3063722,12.066526 97.4785981,11.7336449 C97.6904613,11.460738 97.982633,11.2612062 98.3139252,11.1631776 C99.0009345,10.9447706 99.7129481,10.8146912 100.432804,10.7760748 C101.390374,10.7047664 102.612804,10.6742056 104.069533,10.6742056 C104.996542,10.6742056 105.842056,10.6742056 106.565327,10.745514 C107.162841,10.7768899 107.754472,10.879485 108.327664,11.0511215 C108.744308,11.1859095 109.129071,11.4042883 109.458411,11.6928972 C109.785059,12.0195759 110.038542,12.4119527 110.202056,12.8440187 C110.448462,13.4991958 110.606061,14.1844078 110.670654,14.8814019 C110.731776,15.3601869 110.772523,15.9000935 110.792897,16.4807477 C110.406126,16.2936935 110.003952,16.1403222 109.590841,16.0223364 C108.719352,15.7829055 107.830332,15.6125953 106.932056,15.5129907 C105.616462,15.3653228 104.293147,15.297286 102.969346,15.3092523 C101.879346,15.3092523 100.860654,15.3092523 99.913271,15.3092523 C98.9948781,15.3350256 98.0793192,15.4235182 97.1729907,15.5741121 C96.3702695,15.7349157 95.5878778,15.9843244 94.8401869,16.317757 C94.1357916,16.6065989 93.4979211,17.0364682 92.9657944,17.5809346 C92.4234334,18.1623603 92.0194781,18.8588349 91.7841121,19.6183178 C91.5090391,20.5015962 91.3783241,21.4234805 91.3970093,22.3484112 C91.3772322,23.3412619 91.6385598,24.3194746 92.1508411,25.1701869 C92.7181302,26.0279671 93.5211267,26.7036162 94.463271,27.1158879 C95.6567304,27.6357993 96.9196014,27.9789708 98.2120561,28.1345794 C99.9746716,28.3685301 101.751633,28.4774626 103.529626,28.4605607 C104.8154,28.4827575 106.100605,28.3907136 107.370093,28.185514 C108.234863,28.0457573 109.073121,27.7743542 109.855701,27.3807477 C110.213792,27.1899354 110.554636,26.9683866 110.874393,26.7185981 L110.874393,28.0530841 L115.641869,28.0530841 L115.641869,18.0495327 C115.682708,16.2081798 115.484099,14.369326 115.051028,12.5791589 C114.697942,11.1939099 113.976292,9.93014202 112.96271,8.92205607 Z M110.568785,22.735514 C110.341387,23.0572294 110.021684,23.3023351 109.651963,23.4384112 C108.981144,23.7156064 108.274762,23.8973455 107.553458,23.9783178 C106.397923,24.1222178 105.233896,24.1868859 104.069533,24.1718692 C102.215514,24.1718692 100.697664,24.1718692 99.5771028,24.0496262 C98.7603192,24.0141195 97.9518743,23.8702437 97.1729907,23.6217757 C96.8462212,23.537057 96.5650421,23.3289115 96.3885981,23.0411215 C96.2195784,22.6280585 96.143082,22.1829883 96.164486,21.7371963 C96.1409785,21.313029 96.2105157,20.8888522 96.3682243,20.4943925 C96.5162003,20.2487423 96.7534798,20.0698702 97.0303738,19.9952336 C97.6911018,19.7912503 98.3765217,19.678156 99.067757,19.6590654 C100.086449,19.6081308 101.349626,19.5775701 102.948972,19.5775701 C104.548318,19.5775701 105.882804,19.6285047 106.962617,19.7303738 C107.802749,19.7930225 108.633136,19.9502152 109.438037,20.198972 C109.849786,20.3158537 110.222668,20.54099 110.51785,20.8509346 C110.705063,21.1072881 110.798564,21.4201565 110.78271,21.7371963 C110.807919,22.0835503 110.733701,22.4299012 110.568785,22.735514 Z M159.211308,5.32607477 L164.009346,5.32607477 L164.009346,0.558598131 L159.241869,0.558598131 L159.211308,5.32607477 Z" id="Shape" fill="url(#linearGradient-1)" fill-rule="nonzero"></path>
            <path d="M193.092991,32.4742056 C193.092991,32.4742056 188.457944,36.182243 180.308411,36.1007477 C170.854953,35.9988785 161.238505,31.7713084 157.22486,31.0072897 C153.511218,30.4426972 149.718511,30.7106225 146.121121,31.7916822 C151.968411,28.5420561 154.708692,27.7169159 160.117944,27.7169159 C171.211495,27.7474766 177.639439,35.8053271 193.092991,32.4742056 Z" id="Path" fill="#2B3990"></path>
            <path d="M170.518785,35.0820561 C170.518785,35.0820561 165.343832,39.2383178 156.195981,39.1568224 C145.581215,39.0447664 134.803458,34.2976636 130.280467,33.4827103 C126.11027,32.8563492 121.853323,33.1554484 117.811682,34.358785 C124.372056,30.7118692 127.448505,29.7746729 133.519907,29.7746729 C145.958131,29.764486 153.170467,38.8104673 170.518785,35.0820561 Z" id="Path" fill="#2B3990"></path>
        </g>
    </g>
</svg>