<svg xmlns="http://www.w3.org/2000/svg" width="156" height="115" viewBox="0 0 156 115"><defs><clipPath id="fcmqa"><path d="M0 70.96h23.014v25.665H0z"/></clipPath><clipPath id="fcmqb"><path d="M0 103.09h155.788v11.914H0z"/></clipPath></defs><g><g><g><path fill="#fff" d="M26.887 25v22.838L6.689 25H0v26h4.114V28.28L24.267 51H31V25z"/></g><g><g><path fill="#fff" d="M120.627 25.94H125l-12.815 25.744h-5.818L93.44 25.94h4.343l9.643 18.634.949 1.997c.361.768.65 1.428.88 1.982h.1a91.32 91.32 0 0 1 1.771-3.922z"/></g><g><path fill="#fff" d="M113.07 70.96v25.658h-6.63l-19.853-22.43v22.43H82.53V70.96h6.595l19.89 22.539V70.96z"/></g><g><path fill="#fff" d="M61.823 91.196H43.742l-2.745 5.425H36.73L49.818 70.96h5.663l13.351 25.66H64.61zm-1.172-2.967l-7.924-14.895-7.83 14.895z"/></g><g><path fill="#fff" d="M148.553 46.243h-18.275l-2.773 5.44h-4.315l13.23-25.743h5.723l13.493 25.744h-4.266zm-1.186-2.994l-8.015-14.924-7.908 14.924z"/></g><g><g/><g clip-path="url(#fcmqa)"><path fill="#fff" d="M4.163 70.96v22.21h18.851v3.455H0V70.96z"/></g></g><g><path fill="#fff" d="M125.99 96.627V70.96h16.259c5.264 0 8.823.82 10.677 2.43 1.866 1.607 2.808 4.7 2.808 9.284 0 5.561-.842 9.29-2.5 11.136-1.665 1.874-4.968 2.817-9.932 2.817zm4.17-2.426h11.197c4.385 0 7.224-.625 8.486-1.842 1.263-1.236 1.9-3.982 1.9-8.232 0-4.689-.546-7.627-1.648-8.874-1.101-1.263-3.731-1.864-7.894-1.864h-12.04z"/></g><g><g/><g clip-path="url(#fcmqb)"><path fill="#fff" d="M5.11 110.604h1.222v.962c-.008.05-.014.11-.014.11v.126a.855.855 0 0 0-.02.128.66.66 0 0 1-.055.168 1.321 1.321 0 0 1-.411.72c-.22.217-.519.36-.886.432l-.531.078h-.33l-.3.024H2.002c-.04-.012-.077-.018-.092-.024-.048 0-.083-.008-.125-.018a.317.317 0 0 1-.08-.027l-.22-.042a1.29 1.29 0 0 1-.407-.18 3.8 3.8 0 0 1-.418-.287c-.182-.144-.339-.38-.467-.698A2.754 2.754 0 0 1 0 111.057v-2.704c0-.176.011-.337.028-.484.018-.154.049-.295.096-.432.036-.138.085-.257.143-.364a1.72 1.72 0 0 1 .228-.315c.283-.323.659-.52 1.137-.622l.72-.088h.433l.415-.028h.82l.435.028c.11 0 .218.002.32.034.106.017.211.042.324.085.168.044.322.13.473.237.273.212.457.477.543.795l.064.282.032.27.023.265v.568H4.995v-.444c0-.23-.017-.425-.061-.58a.515.515 0 0 0-.178-.301.816.816 0 0 0-.368-.153l-.291-.028-.387-.02h-.145l-.584.02c-.25 0-.455.014-.624.033-.078.013-.167.024-.256.047-.086.015-.177.041-.285.077a.973.973 0 0 0-.314.182c-.183.2-.28.498-.28.877v2.247c0 .107 0 .216.012.328 0 .12 0 .208.006.282 0 .072.004.134.022.2.011.054.029.131.057.232.03.093.065.182.108.26a.758.758 0 0 0 .163.204l.063.064c.497.342 1.445.14 1.975.191l.534-.017c.152 0 .3-.027.433-.053l.156-.08.145-.097a.566.566 0 0 0 .137-.185.657.657 0 0 0 .06-.304v-.31zm7.466-4.522h1.229v7.201h-1.229v-3.162H8.598v3.162H7.345v-7.2h1.253v3.014h3.978zm8.516 1.195c.042.13.084.317.12.565l.033.352v2.813c0 .407-.039.72-.11.928a.97.97 0 0 1-.054.176l-.027.083-.045.08a1.752 1.752 0 0 1-.184.327 1.31 1.31 0 0 1-.628.5 3.148 3.148 0 0 1-.815.2l-.416.039-.438.012h-.852c-.437 0-.832-.042-1.195-.111a1.87 1.87 0 0 1-.923-.5c-.362-.352-.547-.939-.547-1.748v-2.735l.017-.349c0-.08 0-.141.01-.181 0-.04.007-.067.012-.092.003-.019.013-.05.027-.1l.053-.219a1.92 1.92 0 0 1 .28-.553c.077-.118.166-.205.258-.29.11-.07.232-.142.38-.218.243-.098.513-.162.802-.192.285-.029.627-.044 1.004-.044h.703l.615.042c.158 0 .306.02.445.048l.23.048.25.086c.308.092.54.249.714.476l.125.2c.05.081.095.199.156.357zm-1.075 1.107c0-.14-.002-.253-.012-.358-.012-.1-.03-.197-.053-.28a.876.876 0 0 0-.214-.406c-.11-.123-.314-.205-.6-.234l-.558-.028h-.208l-.291-.02h-.285c-.311 0-.536.02-.689.048-.142 0-.28.03-.424.093a.77.77 0 0 0-.274.234l-.103.255-.024.144-.012.15-.033.476v2.503c0 .439.07.778.218 1.03.073.12.195.203.373.248l.16.03c.63.083 1.401.008 2.05.026l.26-.037a.69.69 0 0 0 .473-.227c.164-.194.246-.53.246-1.007zm11.271 2.22h1.22v.962a.394.394 0 0 0-.02.11v.126c-.012.04-.015.08-.025.128a.464.464 0 0 1-.052.168 1.29 1.29 0 0 1-.402.72c-.22.217-.517.36-.885.432l-.546.078h-.32l-.3.024h-1.784c-.04-.012-.078-.018-.102-.024a.486.486 0 0 1-.117-.018.364.364 0 0 1-.085-.027l-.21-.042a1.293 1.293 0 0 1-.413-.18 3.586 3.586 0 0 1-.413-.287c-.18-.144-.343-.38-.469-.698a2.793 2.793 0 0 1-.193-1.019v-2.704c0-.176.008-.337.033-.484a2 2 0 0 1 .093-.432c.04-.138.086-.257.148-.364.056-.109.13-.215.222-.315.28-.323.656-.52 1.134-.622l.73-.088h.425l.413-.028h.818l.444.028c.107 0 .21.002.318.034.1.017.207.042.324.085.166.044.322.13.47.237.272.212.458.477.542.795l.07.282.03.27.022.265v.568h-1.24v-.444c0-.23-.02-.425-.063-.58a.496.496 0 0 0-.179-.301.806.806 0 0 0-.375-.153l-.281-.028-.384-.02h-.152l-.584.02a5.36 5.36 0 0 0-.617.033c-.083.013-.167.024-.259.047-.088.015-.19.041-.284.077a.993.993 0 0 0-.318.182c-.178.2-.276.498-.276.877v2.247c0 .107.002.216.008.328 0 .12.004.208.006.282 0 .072.009.134.02.2.016.054.033.131.064.232.02.093.065.182.106.26a.634.634 0 0 0 .17.204l.059.064c.463.34 1.481.14 1.975.191l.534-.017c.15 0 .294-.027.421-.053l.16-.08.156-.097a.785.785 0 0 0 .135-.185.824.824 0 0 0 .054-.304v-.31zm7.304-4.522h1.248v5.082c0 .766-.233 1.34-.69 1.714a2.743 2.743 0 0 1-1.12.401l-.688.055-.82.018c-.57 0-.988-.012-1.262-.051a2.315 2.315 0 0 1-.86-.283l-.07-.03-.08-.043-.127-.1-.113-.114-.119-.157c-.027-.045-.05-.078-.077-.127-.006-.005-.032-.058-.08-.152-.039-.115-.08-.224-.112-.342l-.064-.327-.016-.37v-5.174h1.223v5.165c0 .458.089.741.264.862.119.068.285.12.475.15l.43.043c.2.013.368.025.532.025l.213-.025c.052 0 .1.003.147.007.038 0 .086.006.11.018h.391l.103-.025h.2l.262-.044a.821.821 0 0 0 .46-.187l.074-.071.042-.06.035-.087.036-.126.035-.313.018-.421zm8.524 1.195c.051.13.084.317.125.565l.033.352v2.813c0 .407-.04.72-.107.928-.015.053-.026.112-.057.176l-.032.083-.045.08a1.996 1.996 0 0 1-.175.327c-.143.217-.35.381-.635.5a3.145 3.145 0 0 1-.808.2l-.41.039-.446.012h-.854c-.44 0-.831-.042-1.186-.111a1.856 1.856 0 0 1-.923-.5c-.365-.352-.546-.939-.546-1.748v-2.735l.012-.349c0-.08.007-.141.009-.181.007-.04.009-.067.012-.092a.777.777 0 0 1 .03-.1l.058-.219a1.69 1.69 0 0 1 .276-.553c.078-.118.164-.205.262-.29.101-.07.229-.142.377-.218a2.87 2.87 0 0 1 .8-.192c.288-.029.62-.044 1-.044h.704l.612.042c.159 0 .301.02.445.048l.226.048.249.086c.312.092.542.249.715.476l.12.2c.052.081.103.199.159.357zm-1.06 1.107c0-.14-.008-.253-.018-.358-.012-.1-.03-.197-.056-.28a.731.731 0 0 0-.205-.406c-.113-.123-.32-.205-.605-.234l-.553-.028h-.208l-.297-.02h-.284c-.31 0-.538.02-.684.048-.142 0-.285.03-.427.093a.726.726 0 0 0-.267.234l-.11.255-.024.144-.015.15-.036.476v2.503c0 .439.075.778.226 1.03.075.12.196.203.368.248l.16.03c.63.083 1.4.008 2.049.026l.268-.037a.692.692 0 0 0 .472-.227c.163-.194.246-.53.246-1.007zm-3.255-2.853l-.32-.55 1.633-.946 1.628.946-.348.561-1.28-.6zm25.04 0l-.32-.55 1.632-.946 1.63.946-.348.561-1.282-.6zm-24.303 8.285h1.268v1.178h-1.268zm9.849-3.212h1.217v.962l-.012.11v.126a.55.55 0 0 0-.033.128c0 .052-.024.106-.047.168a1.353 1.353 0 0 1-.403.72c-.226.217-.517.36-.892.432l-.537.078h-.323l-.303.024h-1.779c-.038-.012-.08-.018-.103-.024a.487.487 0 0 1-.12-.018.38.38 0 0 1-.08-.027l-.216-.042a1.33 1.33 0 0 1-.414-.18 3.291 3.291 0 0 1-.412-.287c-.178-.144-.338-.38-.463-.698a2.698 2.698 0 0 1-.196-1.019v-2.704c0-.176.012-.337.028-.484.019-.154.049-.295.1-.432a1.594 1.594 0 0 1 .367-.68c.283-.322.66-.52 1.135-.621l.722-.088h.436l.41-.028h.816l.446.028c.106 0 .214.002.315.034.103.017.21.042.32.085.169.044.327.13.475.237.274.212.451.477.544.795l.063.282.035.27.016.265v.568h-1.231v-.444c0-.23-.023-.425-.068-.58a.48.48 0 0 0-.172-.301.808.808 0 0 0-.372-.153l-.293-.028-.374-.02h-.152l-.592.02c-.242 0-.444.014-.615.033-.08.013-.168.024-.259.047-.09.015-.182.041-.28.077a.885.885 0 0 0-.317.182c-.185.2-.281.498-.281.877v2.247c0 .107 0 .216.007.328.004.12.004.208.01.282 0 .072.005.134.017.2.018.054.03.131.065.232.023.093.063.182.104.26.042.078.101.145.167.204l.065.064c.464.34 1.475.14 1.969.191l.542-.017c.147 0 .292-.027.428-.053l.155-.08.145-.097a.644.644 0 0 0 .196-.49v-.308zm11.776.05l.024.242v.257c0 .233-.012.44-.04.6-.022.164-.07.329-.133.496a1.439 1.439 0 0 1-.558.736c-.253.139-.601.252-1.044.294-.455.049-.917.073-1.397.073h-.625l-.26-.024h-.053l-.178-.018-.262-.041a2.216 2.216 0 0 1-.855-.345 1.365 1.365 0 0 1-.483-.656l-.06-.142-.047-.27-.017-.23v-.246l.017-.59h1.237v.133a.792.792 0 0 1-.024.23v.158l.024.163v.168l.045.248a.42.42 0 0 0 .16.257l.092.071.124.05.12.027h.577l.428.014h.53l.08.018.362-.018.325-.05.124-.02a.262.262 0 0 0 .107-.036l.183-.092c.097-.056.169-.164.208-.318a2.47 2.47 0 0 0 .062-.575v-.121c0-.191-.018-.356-.057-.473a.54.54 0 0 0-.151-.272.485.485 0 0 0-.312-.122l-.375-.059c-1.038-.099-2.15.06-3.126-.37l-.142-.107a1.24 1.24 0 0 1-.465-.617l-.046-.148-.06-.24-.025-.225-.005-.246c0-.841.204-1.415.618-1.743.247-.186.565-.305.952-.36a8.744 8.744 0 0 1 1.403-.095c.547 0 1.006.03 1.392.094.381.053.672.161.869.318.202.151.36.36.454.615.102.25.158.547.158.896v.369h-1.222l-.02-.48-.042-.28a.388.388 0 0 0-.126-.256l-.088-.067-.146-.08-.229-.043-.119-.012-.116-.012-.765-.024h-.201c-.345 0-.63.024-.849.057-.216.043-.389.093-.496.181l-.065.064-.067.163-.026.228-.02.296c0 .253.027.444.08.589a.539.539 0 0 0 .253.305c.1.044.243.096.427.122l.283.022.298.012h1.127c.089 0 .218.008.389.027l.51.07.18.035c.024.003.051.013.087.024a.44.44 0 0 1 .104.027c.1.038.212.079.342.173.279.168.455.412.545.736 0 .028.02.104.051.21zm6.93-3.377c.047.13.098.317.127.565l.028.352v2.813c0 .407-.036.72-.108.928a1.395 1.395 0 0 1-.053.176l-.027.083-.045.08c-.043.104-.1.212-.18.327-.14.217-.355.381-.634.5a3.16 3.16 0 0 1-.81.2l-.406.039-.452.012h-.856c-.433 0-.83-.042-1.187-.111a1.89 1.89 0 0 1-.928-.5c-.363-.352-.538-.939-.538-1.748v-2.735l.008-.349c0-.08.006-.141.011-.181a.774.774 0 0 0 .016-.111s.008-.031.027-.082l.053-.218a1.89 1.89 0 0 1 .28-.553c.07-.118.156-.205.26-.29.102-.07.227-.142.38-.218.24-.098.508-.162.798-.192.293-.029.618-.044 1-.044h.703l.613.042c.158 0 .314.02.451.048l.229.048.246.086c.31.092.55.249.72.476l.126.2c.042.081.091.199.148.357zm-1.066 1.107c0-.14-.006-.253-.013-.358a2.323 2.323 0 0 0-.055-.28.77.77 0 0 0-.212-.406c-.118-.123-.314-.205-.606-.234l-.55-.028h-.213l-.29-.02h-.291c-.31 0-.534.02-.686.048-.137 0-.273.03-.419.093a.755.755 0 0 0-.273.234l-.107.255-.027.144-.014.15-.03.476v2.503c0 .439.075.778.217 1.03.076.12.196.203.374.248l.166.03c.624.083 1.398.008 2.042.026l.267-.037a.699.699 0 0 0 .473-.227c.16-.194.247-.53.247-1.007zm-4.1-3.686l-.464-.54 1.8-1.068.607.643zm12.115 1.384h1.246v7.211l-1.687.004-3.905-5.772v5.768h-1.25v-7.21h1.715l3.88 5.831zm5.38 3.43h3.612v1.694c0 .41-.048.76-.155 1.043-.107.28-.277.504-.498.675l-.155.097-.156.08c-.109.04-.228.088-.355.128l-.381.072-.188.027h-.725l-.552.024h-.595c-.277 0-.55-.012-.813-.046-.077 0-.14-.005-.173-.005-.042-.008-.112-.032-.22-.05a1.414 1.414 0 0 1-.322-.098 1.5 1.5 0 0 1-.586-.346c-.202-.184-.371-.448-.511-.8l-.067-.242-.052-.294-.026-.318v-2.606c0-.865.215-1.506.635-1.94.192-.192.435-.332.745-.44.075-.018.143-.043.217-.053.075-.02.159-.032.244-.052.09-.012.182-.027.259-.027.076-.009.168-.015.27-.015h2.013c.65 0 1.167.147 1.541.432.19.154.344.34.445.55.042.1.077.215.107.34.012.064.024.129.026.193.01.052.01.13.01.216v.69h-1.223v-.466c0-.175-.018-.324-.04-.44a.417.417 0 0 0-.112-.236.8.8 0 0 0-.36-.164l-.186-.03a2.171 2.171 0 0 0-.241-.023c-.056-.004-.104-.004-.13-.004l-.74-.02-.927.02c-.225 0-.418.025-.59.046-.16.034-.297.093-.41.172-.098.064-.18.192-.247.371l-.026.158-.03.222-.017.2V111c0 .264.029.474.082.646a.774.774 0 0 0 .288.385c.045.04.114.078.2.107l.29.1.446.064.316.025.198-.025h.608c.03 0 .065.007.112.025h.342a.168.168 0 0 1 .075-.025l.172-.017.254-.046a.758.758 0 0 0 .12-.014c.042-.007.075-.022.116-.027.074-.033.143-.067.222-.116.072-.055.125-.155.176-.306.039-.144.056-.325.056-.542v-.681h-2.388zm14.3.258c.18.189.297.424.35.695.054.256.075.565.075.915v.263c0 .06-.009.093-.009.116l-.036.154-.062.198-.084.23c-.12.282-.327.518-.62.687-.296.172-.66.255-1.086.255h-4.222v-7.2h4.107c.635 0 1.091.16 1.377.483.073.077.124.167.174.258.047.097.096.199.131.322.078.214.113.471.113.763 0 .18-.016.349-.03.49a1.685 1.685 0 0 1-.095.413c-.083.246-.202.44-.373.576l-.125.088c.178.083.314.17.415.294zm-4.469-.683h2.361c.418 0 .703-.072.852-.212a.621.621 0 0 0 .17-.347l.037-.28.01-.351v-.088a.923.923 0 0 0-.007-.1.26.26 0 0 0-.01-.09l-.03-.084a.32.32 0 0 0-.115-.217.51.51 0 0 0-.283-.146l-.303-.037-.362-.011h-2.32zm3.646 2.12c0-.73-.29-1.1-.872-1.1h-2.774v2.142h2.665c.248 0 .432-.03.556-.072a.601.601 0 0 0 .296-.205l.056-.113c.022-.057.035-.12.05-.183l.023-.202zm6.813-5.725l-1.967-.865.672-.617 1.756.958zm9.174.6h1.243v7.211l-1.692.004-3.899-5.785v5.781h-1.259v-7.21h1.718l3.889 5.832zm5.375 3.43h3.617v1.694c0 .41-.058.76-.166 1.043-.105.28-.267.504-.486.675l-.151.097-.164.08c-.104.04-.225.088-.356.128l-.38.072-.185.027h-.733l-.55.024h-.59c-.276 0-.547-.012-.823-.046-.07 0-.13-.005-.172-.005-.035-.008-.107-.032-.21-.05-.107-.014-.214-.056-.327-.098a1.46 1.46 0 0 1-.585-.346c-.198-.184-.374-.448-.511-.8l-.07-.242-.052-.294-.027-.318v-2.606c0-.865.214-1.506.643-1.94.183-.192.433-.332.742-.44.068-.018.142-.043.22-.053.07-.02.154-.032.24-.052.092-.012.178-.027.255-.027.083-.009.17-.015.27-.015h2.018c.649 0 1.166.147 1.542.432.194.154.341.34.442.55.039.1.071.215.102.34.02.064.024.129.038.193l.002.216v.69h-1.224v-.466c0-.175-.013-.324-.04-.44-.019-.11-.052-.186-.113-.236a.744.744 0 0 0-.36-.164l-.183-.03a2.169 2.169 0 0 0-.24-.023c-.056-.004-.105-.004-.134-.004l-.74-.02-.925.02c-.226 0-.422.025-.582.046a1.098 1.098 0 0 0-.414.172c-.106.064-.178.192-.251.371l-.024.158-.033.222-.013.2V111c0 .264.028.474.083.646.06.165.15.294.29.385.04.04.103.078.198.107l.284.1.443.064.324.025.195-.025h.613a.29.29 0 0 1 .107.025h.344c.032-.018.068-.025.068-.025l.184-.017.25-.046c.035 0 .076-.007.119-.014.037-.007.077-.022.113-.027a2.07 2.07 0 0 0 .232-.116.634.634 0 0 0 .165-.306c.04-.144.065-.325.065-.542v-.681h-2.394zm13.505 1.141l.03.243v.257c0 .233-.018.44-.044.6a1.853 1.853 0 0 1-.14.496 1.44 1.44 0 0 1-.548.736 2.724 2.724 0 0 1-1.045.294c-.45.049-.906.073-1.385.073h-.64l-.25-.024h-.058l-.175-.018-.264-.041a2.17 2.17 0 0 1-.848-.345 1.397 1.397 0 0 1-.484-.656l-.058-.142-.053-.27-.015-.23v-.246l.015-.59h1.239v.133c0 .101-.01.174-.024.23v.158l.024.163v.168l.045.248c.01.086.063.181.153.257l.1.071.124.05.126.027h.568l.43.014h.527l.079.018.362-.018.32-.05.128-.02a.274.274 0 0 0 .108-.036l.183-.092c.099-.056.167-.164.208-.318.039-.161.053-.352.053-.575v-.121c0-.191-.014-.356-.053-.473a.44.44 0 0 0-.148-.272.497.497 0 0 0-.313-.122l-.372-.059c-1.033-.1-2.143.064-3.116-.37l-.145-.107a1.213 1.213 0 0 1-.458-.617l-.056-.148-.057-.24-.023-.225-.012-.246c0-.841.215-1.415.622-1.743.248-.186.561-.305.947-.36.39-.065.86-.095 1.406-.095.543 0 1.01.03 1.386.094.378.053.667.161.874.318.196.151.353.36.453.615.097.25.15.547.15.896v.369h-1.205l-.03-.48-.046-.28a.415.415 0 0 0-.12-.256l-.09-.067-.15-.08-.224-.043-.12-.012-.118-.012-.76-.024h-.204a5.59 5.59 0 0 0-.841.057c-.229.043-.392.093-.503.181l-.068.064-.056.163-.038.228-.007.296c0 .253.018.444.072.589a.537.537 0 0 0 .25.305c.109.044.25.096.43.122l.278.022.3.012h1.127c.088 0 .214.008.39.027l.51.07.174.035c.028.003.056.013.093.024a.444.444 0 0 1 .102.027c.093.038.206.079.345.173.264.168.45.412.538.736 0 .028.017.104.048.21zm4.736-4.57l2.952 7.2h-1.284l-.607-1.44h-3.495l-.582 1.44h-1.28l2.855-7.2zm.704 4.752l-1.394-3.418-1.368 3.418zm-1.87-5.377l-.506-.51 1.803-.972.641.627zm10.456.624h1.257v7.211l-1.697.004-3.9-5.772v5.768h-1.254v-7.21h1.716l3.878 5.831zm8.996 3.43v1.694c0 .41-.052.76-.157 1.043-.11.28-.277.504-.492.675l-.153.097-.166.08c-.105.04-.22.088-.358.128l-.372.072-.186.027h-.735l-.546.024h-.597c-.27 0-.543-.012-.81-.046-.083 0-.134-.005-.178-.005-.049-.008-.113-.032-.212-.05a1.451 1.451 0 0 1-.326-.098 1.41 1.41 0 0 1-.584-.346c-.209-.184-.372-.448-.514-.8l-.069-.242-.047-.294-.03-.318v-2.606c0-.865.208-1.506.642-1.94.18-.192.43-.332.738-.44.069-.018.14-.043.21-.053.084-.02.164-.032.251-.052.093-.012.178-.027.256-.027.082-.009.172-.015.273-.015h2.018c.649 0 1.165.147 1.541.432.191.154.34.34.437.55.044.1.078.215.114.34.01.064.017.129.017.193a.9.9 0 0 1 .015.216v.69h-1.217v-.466c0-.175-.021-.324-.05-.44a.36.36 0 0 0-.111-.236.747.747 0 0 0-.353-.164l-.19-.03a2.008 2.008 0 0 0-.241-.023c-.055-.004-.103-.004-.136-.004l-.73-.02-.93.02c-.22 0-.418.025-.586.046a1.14 1.14 0 0 0-.417.172c-.094.064-.174.192-.238.371l-.032.158-.03.222-.02.2V111c0 .264.032.474.093.646.053.165.15.294.28.385a.59.59 0 0 0 .202.107l.29.1.44.064.326.025.185-.025h.62c.02 0 .063.007.107.025h.35c.027-.018.062-.025.062-.025l.176-.017.253-.046a.82.82 0 0 0 .124-.014c.036-.007.075-.022.113-.027.07-.033.148-.067.228-.116.069-.055.122-.155.164-.306a1.78 1.78 0 0 0 .062-.542v-.681h-2.38v-1.04zm-47.85-3.967v1.262c0 .271-.047.488-.142.626a.778.778 0 0 1-.428.301l-.267.042h-.28v3.377c0 .403-.056.746-.162 1.032a1.663 1.663 0 0 1-.522.693c-.306.205-.671.336-1.12.391l-.69.065-.818.018c-.568 0-.992-.012-1.262-.051a2.39 2.39 0 0 1-.862-.283l-.151-.083-.13-.097-.101-.12-.126-.144c-.01-.02-.025-.045-.05-.088a2.357 2.357 0 0 0-.101-.184c-.05-.108-.081-.22-.121-.35a3.364 3.364 0 0 1-.075-.705v-5.197h1.227v5.184c0 .46.078.748.255.864.108.067.264.12.475.151l.443.053c.19.013.359.025.516.025l.216-.025c.056 0 .101.003.148.007.05 0 .082.006.113.018h.388l.105-.025h.202l.256-.05.155-.02.113-.047a.41.41 0 0 0 .192-.114.62.62 0 0 0 .128-.144.932.932 0 0 0 .062-.211l.036-.31.022-.417v-4.94h1.24v.956c.036 0 .065-.01.112-.01 0 0 .027-.018.05-.042.046-.038.063-.105.063-.2v-1.208z"/></g></g><g><path fill="#002b5f" d="M0 64.532h155.652v-.852H0z"/></g><g><path fill="#5e9d45" d="M63.24 7.82c.252.2 3.509 2.784 4.323 3.44h-8.615c.815-.656 4.03-3.24 4.292-3.44zm-8.257 25.364l2.598 4.539v9.058c-.732-1.294-9.413-16.977-11.81-21.294zm-4.545-11.809c-.472-.365-.928-.736-1.367-1.09 2.06-1.906 4.092-3.763 4.158-3.832h19.655c.061.07 2.283 1.983 4.521 3.932-.405.317-.828.645-1.247.99l-2.275-1.76H52.346zm-5.588 26.96v-12.2l5.037 9.15zm33.098-13.68l3.743-2.984v9.464c-.179.137-12.027 9.638-12.768 10.226v-4.58l9.025-7.23z"/></g><g><path fill="#8cc63f" d="M58.066 35.735l4.937 4.144c0 .222-.076 22.05-.076 23.002-.67-.554-4.936-3.938-5.01-4.003L44.834 35.081a.32.32 0 0 0-.268-.12c-.116.043-.185.12-.185.231v12.87c-.664-.523-4.794-3.865-4.952-3.983V20.187l5.109 4.266c.103.084.18.15.22.183.047.079 12.848 23.189 12.848 23.189.047.1.164.138.277.115a.238.238 0 0 0 .182-.222zm27.237-14.632l-5.384 4.48C73.01 31.353 63.458 39.3 63.26 39.47l-5.282-4.421a5466.347 5466.347 0 0 1-12.871-10.753l-5.486-4.567c.387-.318 3.733-3.002 4.008-3.204.3.22 19.46 15.593 19.46 15.593a.225.225 0 0 0 .302 0s19.28-15.326 19.573-15.571c.275.206 3.597 2.882 3.98 3.189-.07.069-.663.556-1.635 1.368zm.329.365s1.013-.817 1.506-1.21v23.606c-.178.137-22.883 18.4-23.65 19.005V39.901l11.703-9.752c5.303-4.418 10.44-8.681 10.44-8.681zm-3.457 9.714a.25.25 0 0 0-.159-.222c-.073-.05-.167-.028-.24.033L68.538 41.571a.226.226 0 0 0-.086.181V51.87c0 .075.044.167.135.2a.241.241 0 0 0 .25-.029l13.238-10.603c.061-.052.1-.108.1-.188zM52.97 16.04s-2.138 1.978-4.268 3.934c-2.272-1.83-4.074-3.27-4.687-3.765C50.8 10.77 63.068.904 63.246.76c.252.209 12.037 9.6 12.037 9.6s4 3.216 7.327 5.868c-.608.49-2.475 1.98-4.837 3.837-2.29-1.978-4.645-4.026-4.645-4.026-.058-.033-.097-.057-.168-.057H53.133a.245.245 0 0 0-.164.057zm5.158-4.734c-.071.079-.107.17-.07.265.033.093.125.166.22.166h9.96c.102 0 .2-.073.226-.166.036-.094 0-.186-.079-.265l-4.999-3.961c-.087-.075-.202-.075-.301 0z"/></g><g><path fill="#fefefe" d="M58.279 11.737a.24.24 0 0 1-.219-.15c-.037-.102-.001-.197.07-.273l4.953-3.97a.231.231 0 0 1 .3 0l4.996 3.97c.079.076.12.171.079.274-.026.086-.118.15-.226.15zm4.96-3.903c-.262.19-3.473 2.78-4.273 3.439h8.588c-.81-.659-4.063-3.248-4.314-3.44zM87.47 19.56c.08.025.142.12.142.209v23.988s-.03.36-.093.396l-24.12 19.411c-.009.018-.018.018-.018.018-.036.052-.072.09-.122.107a.22.22 0 0 1-.261-.031l-5.438-4.417c-.015-.031-.037-.058-.053-.064 0 0-11.802-21.508-12.652-23.039v12.424c0 .096-.05.182-.138.213-.076.05-.18.038-.253-.02l-5.432-4.37a.252.252 0 0 1-.091-.196V19.612L63.075.302c.086-.07.254-.07.332 0zM63.25.763c-.178.15-12.449 10.014-19.235 15.46.613.495 2.415 1.937 4.688 3.769 2.13-1.958 4.269-3.937 4.269-3.937a.245.245 0 0 1 .164-.058h19.84c.062 0 .1.024.158.058 0 0 2.357 2.042 4.647 4.029 2.362-1.858 4.22-3.35 4.838-3.84-3.323-2.655-7.329-5.87-7.329-5.87S63.502.97 63.25.762zm9.631 15.692H53.232c-.077.069-2.098 1.923-4.157 3.825 5.692 4.56 13.967 11.194 14.17 11.356.194-.162 8.44-6.714 14.155-11.255-2.237-1.949-4.459-3.857-4.52-3.926zm-9.993 23.338l-4.827-4.058v11.984c0 .102-.07.199-.184.222a.238.238 0 0 1-.274-.115S44.804 24.714 44.757 24.635l-.22-.185-5.108-4.264V44.08c.158.118 4.287 3.46 4.95 3.983v-12.87c0-.112.07-.189.176-.232a.326.326 0 0 1 .277.12s13.044 23.736 13.08 23.799c.074.065 4.335 3.443 5.009 4.003zM45.776 25.488c2.396 4.32 11.078 20.001 11.81 21.31V35.34zm17.482 13.969c.199-.162 9.745-8.108 16.66-13.875l5.384-4.48h.004c.973-.812 1.566-1.3 1.636-1.367-.385-.308-3.705-2.975-3.98-3.19-.293.245-19.573 15.563-19.573 15.563-.087.084-.202.084-.302 0 0 0-19.16-15.364-19.46-15.584-.275.202-3.62 2.886-4.008 3.203l5.485 4.567c3.873 3.253 9.037 7.56 12.872 10.758zm23.879-19.193c-.493.387-1.506 1.203-1.506 1.203s-5.137 4.256-10.438 8.682l-11.7 9.753V62.87c.766-.604 23.466-18.87 23.644-19.006zM82.014 30.96a.24.24 0 0 1 .16.22v10.07c0 .08-.04.135-.1.188L68.841 52.044a.241.241 0 0 1-.25.03c-.1-.034-.135-.126-.135-.206V41.753c0-.08.025-.136.085-.181L81.766 30.99c.081-.062.175-.084.248-.03zm-.318.71c-.739.584-12.604 10.047-12.769 10.18v9.517c.741-.588 12.59-10.092 12.769-10.229z"/></g></g></g></g></svg>