<svg xmlns="http://www.w3.org/2000/svg" width="74" height="12" viewBox="0 0 74 12"><g><g clip-path="url(#clip-2443D6C5-9F7A-476E-BC52-248484D7DF9B)"><path fill="#29af7d" d="M73.898 4.647s-4.521 3.635-12.52 3.554c-9.28-.094-18.717-4.252-22.654-4.96-2.845-.512-6.77-.413-10.904.768C33.558.82 36.251.001 41.556 0c10.868 0 17.178 7.908 32.342 4.647"/></g><g><path fill="#2b388f" d="M51.74 7.198s-5.077 4.081-14.058 3.99c-10.421-.105-21.018-4.774-25.439-5.569C9.05 5.045 4.641 5.154 0 6.482 6.443 2.9 9.466 1.98 15.425 1.98c12.202 0 19.288 8.879 36.315 5.218"/></g></g></svg>