<svg xmlns="http://www.w3.org/2000/svg" width="213" height="39" viewBox="0 0 213 39"><g><g><g><path fill="#fefefe" d="M20.802.53l15.315 26.932h-5.062l-3.306-5.828H8.726l-3.318 5.828H0L15.367.53zm4.593 16.955L18.256 4.9 11.09 17.485zm155.272-.006h4.148v.75c0 1.675-.14 3.101-.418 4.24-.296 1.211-.806 2.203-1.519 2.948-.716.747-1.659 1.283-2.804 1.595-1.074.292-2.405.44-3.956.44-1.494 0-2.775-.117-3.807-.349-1.099-.246-2.012-.68-2.712-1.288-.713-.621-1.228-1.45-1.534-2.463-.285-.949-.43-2.134-.43-3.521v-8.797h-3.923V6.886h3.923v-5.18h4.68v5.18h11.971v4.148h-11.971v8.793c0 .985.071 1.738.213 2.242.112.407.279.695.496.857.236.176.574.282 1.007.314.562.043 1.259.065 2.07.065.651 0 1.234-.011 1.748-.032.46-.02.862-.078 1.194-.177.293-.087.53-.211.726-.38.181-.155.337-.395.463-.71.146-.367.254-.852.323-1.44.075-.628.112-1.414.112-2.337zM55.879 6.888h4.678V33.82h-4.678v-7.577a7.14 7.14 0 0 1-1.177.6c-.692.284-1.583.523-2.649.707-1.054.184-2.368.277-3.902.277-2.16 0-4.028-.166-5.555-.493-1.592-.341-2.915-.941-3.931-1.784-1.035-.856-1.794-2.018-2.255-3.452-.441-1.367-.665-3.096-.665-5.136 0-2.011.224-3.709.667-5.047.462-1.403 1.223-2.537 2.262-3.371 1.016-.817 2.338-1.395 3.93-1.719 1.522-.309 3.389-.467 5.547-.467 1.532 0 2.843.087 3.895.259 1.061.172 1.95.395 2.64.66.468.18.863.37 1.193.573zm-.172 12.872c.12-.783.182-1.741.182-2.847 0-1.085-.062-2.021-.182-2.781-.113-.711-.291-1.303-.53-1.761-.222-.424-.494-.747-.833-.984-.355-.249-.806-.438-1.34-.564a11.48 11.48 0 0 0-2.05-.259 61.054 61.054 0 0 0-2.798-.056c-1.214 0-2.273.032-3.152.096-.843.061-1.562.178-2.136.348-.528.155-.953.366-1.265.626-.298.249-.526.575-.696.997-.187.466-.314 1.051-.38 1.739-.068.74-.103 1.631-.103 2.648 0 1.016.035 1.913.104 2.665.065.702.194 1.306.383 1.795.171.443.41.802.71 1.071.313.277.741.507 1.27.682.569.187 1.283.319 2.122.391.876.074 1.932.111 3.143.111 1.046 0 1.983-.024 2.788-.073.774-.045 1.457-.15 2.031-.309.536-.149.99-.361 1.349-.63.344-.258.621-.605.848-1.06.24-.486.42-1.108.535-1.845zM213.095 6.947L202.47 28.171a28.7 28.7 0 0 1-.784 1.521 7.686 7.686 0 0 1-1.016 1.421 6.843 6.843 0 0 1-1.384 1.159 8.044 8.044 0 0 1-1.869.854c-.697.224-1.531.398-2.48.518-.932.116-2.044.176-3.305.176h-.75v-4.149s3.35-.046 5.029-.452c2.292-.556 1.623-1.762 1.623-1.762L186.678 6.888l5.416.001 7.997 15.99 7.571-15.932zM83.064 6.888h4.679v20.574h-4.679v-1.881a7.01 7.01 0 0 1-1.331.851c-.792.4-1.774.727-3.004.997-1.204.264-2.705.398-4.462.398-1.455 0-2.729-.09-3.788-.268-1.083-.181-2.022-.458-2.794-.823-.804-.381-1.464-.865-1.958-1.438a6.1 6.1 0 0 1-1.133-1.971 10.06 10.06 0 0 1-.501-2.372 28.57 28.57 0 0 1-.12-2.72l.018-11.347h4.662v11.243c0 1.112.083 2.053.247 2.798.145.656.418 1.165.838 1.555.429.397 1.07.695 1.908.884.914.205 2.154.309 3.682.309 1.662 0 3.031-.12 4.067-.358.994-.227 1.775-.543 2.32-.941.512-.373.852-.801 1.039-1.308.206-.56.31-1.196.31-1.89zm27.822 1.85c.928.898 1.603 2.108 2.007 3.597.386 1.423.581 3.23.581 5.37v9.757h-4.679V26.15a6.098 6.098 0 0 1-.958.648c-.628.346-1.425.605-2.436.792-.964.179-2.232.27-3.77.27-2.023 0-3.78-.106-5.224-.315-1.48-.214-2.717-.552-3.676-1.007-1.02-.486-1.786-1.129-2.275-1.912-.488-.781-.736-1.712-.736-2.765 0-1.038.128-1.941.379-2.684.262-.769.654-1.429 1.163-1.959a5.364 5.364 0 0 1 1.837-1.233 10.636 10.636 0 0 1 2.273-.626 20.841 20.841 0 0 1 2.689-.258c.946-.033 1.953-.05 3.023-.05 1.536 0 2.843.066 3.885.196 1.049.132 1.928.302 2.613.506.466.139.856.285 1.181.443-.024-.577-.065-1.1-.121-1.564-.095-.802-.252-1.472-.463-1.993-.195-.48-.442-.861-.733-1.131a2.948 2.948 0 0 0-1.104-.623c-.487-.157-1.07-.26-1.733-.305a36.918 36.918 0 0 0-2.449-.072c-1.434 0-2.635.035-3.57.105-.885.066-1.584.193-2.079.377-.402.151-.677.34-.818.565-.155.247-.233.601-.233 1.05v.75h-4.679v-.75c0-1.122.209-2.095.621-2.894.429-.831 1.138-1.51 2.108-2.017.905-.474 2.091-.82 3.525-1.03 1.388-.203 3.112-.306 5.125-.306 1.992 0 3.711.169 5.107.501 1.474.35 2.691.983 3.618 1.879zm-2.343 13.564c.169-.274.252-.594.252-.977 0-.356-.087-.642-.266-.873-.187-.243-.554-.464-1.06-.641-.598-.207-1.417-.361-2.433-.459-1.053-.101-2.377-.151-3.936-.151-1.567 0-2.848.026-3.807.08-.898.049-1.585.161-2.042.33-.338.126-.558.289-.653.486-.089.19-.198.558-.198 1.228 0 .538.073.966.217 1.273.107.225.367.418.774.574.526.201 1.32.342 2.362.418 1.1.08 2.584.12 4.407.12 1.361 0 2.511-.063 3.415-.189.867-.119 1.563-.297 2.069-.527.435-.198.737-.43.899-.692zm47.751-15.414h4.679v19.974a24.637 24.637 0 0 0-4.679-.3zm-4.78-2.799c.374.697.637 1.493.784 2.366.138.834.208 1.767.208 2.773v.75h-4.68v-.75c0-1.229-.13-2.2-.385-2.885-.228-.614-.589-1.063-1.106-1.373-.565-.339-1.338-.56-2.299-.659-1.049-.107-2.37-.162-3.924-.162h-7.436c-1.386 0-2.565.041-3.504.122-.888.076-1.62.228-2.177.453-.501.202-.87.475-1.13.836-.277.384-.485.92-.617 1.594l-.001.001c-.146.733-.23 1.661-.252 2.758a216.428 216.428 0 0 0-.032 4.083c0 1.583.013 2.943.041 4.08.026 1.096.113 2.025.259 2.761.134.677.34 1.214.613 1.599.255.359.62.631 1.118.832.56.226 1.291.378 2.177.453.944.081 2.123.122 3.505.122h7.436c1.214 0 2.27-.033 3.141-.097.843-.063 1.562-.176 2.139-.338.528-.149.952-.349 1.258-.593.297-.238.523-.531.69-.894.18-.397.306-.889.375-1.465.074-.627.11-1.374.11-2.221v-.75h4.681v.75c0 1.091-.069 2.095-.207 2.987-.145.932-.405 1.775-.776 2.508a6.33 6.33 0 0 1-1.53 1.961c-.627.542-1.425.991-2.37 1.336-.91.334-2.002.581-3.244.735-1.215.152-2.65.23-4.267.23h-7.436c-1.98 0-3.677-.123-5.043-.368-1.405-.251-2.59-.64-3.52-1.159-.967-.539-1.727-1.233-2.263-2.062-.515-.8-.894-1.746-1.128-2.813-.224-1.021-.356-2.188-.39-3.468-.033-1.241-.05-2.617-.05-4.126 0-1.508.017-2.884.05-4.126.034-1.279.166-2.446.39-3.469.234-1.066.613-2.012 1.13-2.812.534-.829 1.293-1.522 2.26-2.061.93-.519 2.114-.909 3.521-1.16C129.001.124 130.697 0 132.676 0h7.436c1.613 0 3.048.078 4.267.23 1.24.155 2.33.395 3.236.715.943.332 1.738.763 2.365 1.28a6.169 6.169 0 0 1 1.535 1.864zm4.78-3.559h4.68v4.679h-4.68z"/></g><g><path fill="#fefefe" d="M189.548 31.867s-4.521 3.635-12.52 3.554c-9.28-.095-18.718-4.252-22.655-4.96-2.844-.512-6.769-.413-10.903.768 5.738-3.189 8.431-4.009 13.736-4.009 10.867 0 17.178 7.908 32.342 4.647"/></g><g><path fill="#fefefe" d="M167.39 34.419s-5.077 4.081-14.058 3.99c-10.421-.105-21.019-4.774-25.439-5.569-3.194-.574-7.602-.465-12.243.862 6.442-3.581 9.466-4.501 15.424-4.502 12.203 0 19.289 8.88 36.316 5.219"/></g></g></g></svg>